<svg width="25" height="24" viewBox="0 0 25 24" fill="none" xmlns="http://www.w3.org/2000/svg">
<path d="M8.76 24L8.28 20.16C8.02 20.06 7.7752 19.94 7.5456 19.8C7.3152 19.66 7.09 19.51 6.87 19.35L3.3 20.85L0 15.15L3.09 12.81C3.07 12.67 3.06 12.5348 3.06 12.4044V11.5944C3.06 11.4648 3.07 11.33 3.09 11.19L0 8.85L3.3 3.15L6.87 4.65C7.09 4.49 7.32 4.34 7.56 4.2C7.8 4.06 8.04 3.94 8.28 3.84L8.76 0H15.36L15.84 3.84C16.1 3.94 16.3452 4.06 16.5756 4.2C16.8052 4.34 17.03 4.49 17.25 4.65L20.82 3.15L24.12 8.85L21.03 11.19C21.05 11.33 21.06 11.4648 21.06 11.5944V12.4044C21.06 12.5348 21.04 12.67 21 12.81L24.09 15.15L20.79 20.85L17.25 19.35C17.03 19.51 16.8 19.66 16.56 19.8C16.32 19.94 16.08 20.06 15.84 20.16L15.36 24H8.76ZM12.12 16.2C13.28 16.2 14.27 15.79 15.09 14.97C15.91 14.15 16.32 13.16 16.32 12C16.32 10.84 15.91 9.85 15.09 9.03C14.27 8.21 13.28 7.8 12.12 7.8C10.94 7.8 9.9448 8.21 9.1344 9.03C8.3248 9.85 7.92 10.84 7.92 12C7.92 13.16 8.3248 14.15 9.1344 14.97C9.9448 15.79 10.94 16.2 12.12 16.2Z" fill="white"/>
</svg>
