<svg width="49" height="43" viewBox="0 0 49 43" fill="none" xmlns="http://www.w3.org/2000/svg">
<path d="M44.1 0H4.9C2.205 0 0 2.41875 0 5.375V37.625C0 40.5812 2.205 43 4.9 43H44.1C46.795 43 49 40.5812 49 37.625V5.375C49 2.41875 46.795 0 44.1 0ZM13.818 29.5625H11.0005V17.4688L8.7955 19.2425L7.3745 16.8506L11.6865 13.4375H13.818V29.5625ZM28.175 29.5625H18.6445V26.8212C21.266 23.9456 22.981 22.0644 23.863 21.0431C24.843 19.9144 25.186 19.1888 25.186 18.1944C25.186 17.1194 24.4265 16.2594 23.2015 16.2594C21.9275 16.2594 21.2415 17.3075 20.9965 18.1944L18.522 17.0656C18.5465 17.0119 18.963 15.0231 20.972 13.975C22.6625 13.0881 24.598 13.4375 25.7495 14.0556C27.8565 15.2381 27.979 17.3881 27.979 18.0331C27.979 19.7531 27.2195 21.4194 25.725 23.0319C25.1125 23.7037 23.961 24.94 22.295 26.7675L22.3685 26.9019H28.175V29.5625ZM41.0375 27.2781C40.8415 27.6275 39.6655 29.5625 36.7255 29.5625C36.6275 29.5625 32.8055 29.7775 31.703 25.5044L34.2265 24.4025C34.3 24.6712 34.692 26.7137 36.7255 26.7137C37.73 26.7137 38.906 25.9613 38.906 24.6444C38.906 23.1663 37.73 22.5212 36.358 22.5212H35.133V19.8337H36.26C37.0685 19.8337 38.416 19.4575 38.416 17.8988C38.416 16.8506 37.6565 16.1519 36.5785 16.1519C35.3535 16.1519 34.7655 17.0119 34.496 17.8719L32.0705 16.77C32.34 15.8562 33.516 13.4375 36.603 13.4375C39.2735 13.4375 40.376 15.1575 40.572 15.4531C41.3805 16.7969 41.258 18.5706 40.621 19.6725C40.2535 20.2638 39.837 20.6938 39.347 20.9625V21.1506C40.033 21.4462 40.5965 21.9031 41.013 22.5481C41.9195 23.9456 41.8215 25.9612 41.0375 27.2781Z" fill="#C0C0C0"/>
</svg>
